<svg version="1.1" id="Layer_1" xmlns="http://www.w3.org/2000/svg" xmlns:xlink="http://www.w3.org/1999/xlink" x="0px" y="0px"
	 width="100%" viewBox="0 0 1536 1024" enable-background="new 0 0 1536 1024" xml:space="preserve">
<path fill="#FEFEFE" opacity="1.000000" stroke="none" 
	d="
M848.000000,1025.000000 
	C565.333313,1025.000000 283.166656,1025.000000 1.000000,1025.000000 
	C1.000000,683.666687 1.000000,342.333344 1.000000,1.000000 
	C513.000000,1.000000 1025.000000,1.000000 1537.000000,1.000000 
	C1537.000000,342.333344 1537.000000,683.666687 1537.000000,1025.000000 
	C1307.500000,1025.000000 1078.000000,1025.000000 848.000000,1025.000000 
M399.253540,663.619263 
	C445.219879,709.152283 491.186249,754.685303 537.785278,800.845032 
	C537.785278,786.200928 537.785583,772.574585 537.785278,758.948242 
	C537.783020,655.959412 537.685242,552.970520 537.822144,449.981873 
	C537.882568,404.498322 568.855469,364.044281 612.682861,351.967163 
	C620.473328,349.820404 628.635315,349.021790 637.425842,347.458344 
	C637.007996,340.845917 637.025635,333.676849 636.037964,326.649048 
	C626.193359,256.594452 558.842529,210.946136 490.140808,227.622299 
	C436.169952,240.722794 398.782806,287.878265 398.701996,343.542572 
	C398.558746,442.198242 398.645325,540.854248 398.656311,639.510132 
	C398.657166,646.999512 398.820984,654.488892 398.810211,662.514282 
	C398.910614,662.665710 399.011017,662.817078 399.253540,663.619263 
M1044.829102,801.055237 
	C1076.085815,801.055237 1107.342407,801.055237 1138.956909,801.055237 
	C1138.956909,798.894226 1138.957031,797.423523 1138.956909,795.952881 
	C1138.951782,644.989197 1138.973511,494.025513 1138.857910,343.061920 
	C1138.852417,335.943176 1138.065308,328.752441 1136.898438,321.718597 
	C1127.598633,265.653259 1075.669434,222.858078 1018.967041,224.337799 
	C954.629272,226.016769 903.980774,278.075317 903.934204,342.594116 
	C903.906799,380.584930 903.899841,418.575714 903.899170,456.566528 
	C903.898071,523.883667 903.888367,591.200806 904.003723,658.517700 
	C904.007568,660.768127 904.658997,663.674194 906.131104,665.169861 
	C950.073730,709.815979 994.143066,754.337524 1038.295044,798.776733 
	C1039.606689,800.097046 1042.021851,800.321106 1044.829102,801.055237 
M672.981934,681.517822 
	C711.385071,720.419861 749.788208,759.321838 789.219421,799.265320 
	C789.219421,795.042664 789.219543,792.570679 789.219360,790.098755 
	C789.210876,693.292908 789.161621,596.487122 789.226990,499.681335 
	C789.240662,479.366302 788.768127,458.991180 790.112854,438.749603 
	C792.652771,400.518677 822.923584,363.660278 859.631165,352.983643 
	C868.327087,350.454346 877.391663,349.192566 886.265991,347.352051 
	C886.265991,343.192108 886.466309,338.705353 886.235779,334.240814 
	C883.069214,272.912720 828.681763,219.986572 763.037109,224.694794 
	C703.968689,228.931335 655.306580,278.843140 655.053162,338.188629 
	C654.595703,445.323181 654.909668,552.461121 655.027588,659.597473 
	C655.029785,661.625549 656.128174,664.071838 657.511902,665.602966 
	C662.311218,670.913574 667.462708,675.905945 672.981934,681.517822 
z"/>
<path fill="#C85C2C" opacity="1.000000" stroke="none" 
	d="
M1044.375732,801.055786 
	C1042.021851,800.321106 1039.606689,800.097046 1038.295044,798.776733 
	C994.143066,754.337524 950.073730,709.815979 906.131104,665.169861 
	C904.658997,663.674194 904.007568,660.768127 904.003723,658.517700 
	C903.888367,591.200806 903.898071,523.883667 903.899170,456.566528 
	C903.899841,418.575714 903.906799,380.584930 903.934204,342.594116 
	C903.980774,278.075317 954.629272,226.016769 1018.967041,224.337799 
	C1075.669434,222.858078 1127.598633,265.653259 1136.898438,321.718597 
	C1138.065308,328.752441 1138.852417,335.943176 1138.857910,343.061920 
	C1138.973511,494.025513 1138.951782,644.989197 1138.956909,795.952881 
	C1138.957031,797.423523 1138.956909,798.894226 1138.956909,801.055237 
	C1107.342407,801.055237 1076.085815,801.055237 1044.375732,801.055786 
z"/>
<path fill="#C85C2C" opacity="1.000000" stroke="none" 
	d="
M398.909027,661.978271 
	C398.820984,654.488892 398.657166,646.999512 398.656311,639.510132 
	C398.645325,540.854248 398.558746,442.198242 398.701996,343.542572 
	C398.782806,287.878265 436.169952,240.722794 490.140808,227.622299 
	C558.842529,210.946136 626.193359,256.594452 636.037964,326.649048 
	C637.025635,333.676849 637.007996,340.845917 637.425842,347.458344 
	C628.635315,349.021790 620.473328,349.820404 612.682861,351.967163 
	C568.855469,364.044281 537.882568,404.498322 537.822144,449.981873 
	C537.685242,552.970520 537.783020,655.959412 537.785278,758.948242 
	C537.785583,772.574585 537.785278,786.200928 537.785278,800.845032 
	C491.186249,754.685303 445.219879,709.152283 399.329437,663.180542 
	C399.239899,662.487305 399.074463,662.232788 398.909027,661.978271 
z"/>
<path fill="#C75C2C" opacity="1.000000" stroke="none" 
	d="
M672.731079,681.268616 
	C667.462708,675.905945 662.311218,670.913574 657.511902,665.602966 
	C656.128174,664.071838 655.029785,661.625549 655.027588,659.597473 
	C654.909668,552.461121 654.595703,445.323181 655.053162,338.188629 
	C655.306580,278.843140 703.968689,228.931335 763.037109,224.694794 
	C828.681763,219.986572 883.069214,272.912720 886.235779,334.240814 
	C886.466309,338.705353 886.265991,343.192108 886.265991,347.352051 
	C877.391663,349.192566 868.327087,350.454346 859.631165,352.983643 
	C822.923584,363.660278 792.652771,400.518677 790.112854,438.749603 
	C788.768127,458.991180 789.240662,479.366302 789.226990,499.681335 
	C789.161621,596.487122 789.210876,693.292908 789.219360,790.098755 
	C789.219543,792.570679 789.219421,795.042664 789.219421,799.265320 
	C749.788208,759.321838 711.385071,720.419861 672.731079,681.268616 
z"/>
<path fill="#C64C1D" opacity="1.000000" stroke="none" 
	d="
M398.859619,662.246277 
	C399.074463,662.232788 399.239899,662.487305 399.258362,662.855103 
	C399.011017,662.817078 398.910614,662.665710 398.859619,662.246277 
z"/>
</svg>